<svg width="48" height="48" viewBox="0 0 48 48" fill="none" xmlns="http://www.w3.org/2000/svg">
<path d="M43.35 18.075C42.2959 15.5799 40.7676 13.313 38.85 11.4C36.937 9.48238 34.6701 7.95415 32.175 6.9C29.5828 5.80312 26.8359 5.25 24 5.25C21.1641 5.25 18.4172 5.80312 15.825 6.9C13.3299 7.95415 11.063 9.48238 9.15 11.4C7.23238 13.313 5.70415 15.5799 4.65 18.075C3.55312 20.6672 3 23.4141 3 26.25C3 32.4703 5.73281 38.3297 10.4953 42.3328L10.575 42.3984C10.8469 42.6234 11.1891 42.75 11.5406 42.75H36.4641C36.8156 42.75 37.1578 42.6234 37.4297 42.3984L37.5094 42.3328C42.2672 38.3297 45 32.4703 45 26.25C45 23.4141 44.4422 20.6672 43.35 18.075ZM22.5938 10.875C22.5938 10.6687 22.7625 10.5 22.9688 10.5H25.0312C25.2375 10.5 25.4062 10.6687 25.4062 10.875V14.625C25.4062 14.8313 25.2375 15 25.0312 15H22.9688C22.7625 15 22.5938 14.8313 22.5938 14.625V10.875ZM12.6562 27.2812C12.6562 27.4875 12.4875 27.6562 12.2812 27.6562H8.53125C8.325 27.6562 8.15625 27.4875 8.15625 27.2812V25.2188C8.15625 25.0125 8.325 24.8438 8.53125 24.8438H12.2812C12.4875 24.8438 12.6562 25.0125 12.6562 25.2188V27.2812ZM16.9078 17.6953L15.45 19.1531C15.3795 19.2229 15.2843 19.2621 15.1852 19.2621C15.086 19.2621 14.9908 19.2229 14.9203 19.1531L12.2672 16.5C12.1974 16.4295 12.1583 16.3343 12.1583 16.2352C12.1583 16.136 12.1974 16.0408 12.2672 15.9703L13.725 14.5125C13.8703 14.3672 14.1094 14.3672 14.2547 14.5125L16.9078 17.1656C17.0531 17.3109 17.0531 17.55 16.9078 17.6953ZM30.5531 21.6141L26.5922 25.575C26.8266 26.4516 26.6016 27.4219 25.9125 28.1109C25.6689 28.355 25.3796 28.5486 25.061 28.6807C24.7425 28.8128 24.4011 28.8808 24.0563 28.8809C23.7114 28.8808 23.37 28.8128 23.0515 28.6807C22.7329 28.5486 22.4436 28.355 22.2 28.1109C21.9559 27.8673 21.7623 27.578 21.6302 27.2595C21.4981 26.941 21.4301 26.5995 21.4301 26.2547C21.4301 25.9099 21.4981 25.5684 21.6302 25.2499C21.7623 24.9314 21.9559 24.642 22.2 24.3984C22.5255 24.072 22.9314 23.8372 23.3766 23.7179C23.8219 23.5985 24.2908 23.5988 24.7359 23.7188L28.6969 19.7578C28.8422 19.6125 29.0812 19.6125 29.2266 19.7578L30.5531 21.0844C30.6984 21.2297 30.6984 21.4641 30.5531 21.6141ZM32.5687 19.1578L31.1109 17.7C31.0411 17.6295 31.002 17.5343 31.002 17.4352C31.002 17.336 31.0411 17.2408 31.1109 17.1703L33.7641 14.5172C33.9094 14.3719 34.1484 14.3719 34.2937 14.5172L35.7516 15.975C35.8969 16.1203 35.8969 16.3594 35.7516 16.5047L33.0984 19.1578C33.028 19.2276 32.9328 19.2668 32.8336 19.2668C32.7344 19.2668 32.6392 19.2276 32.5687 19.1578ZM39.6562 27.2812C39.6562 27.4875 39.4875 27.6562 39.2812 27.6562H35.5312C35.325 27.6562 35.1562 27.4875 35.1562 27.2812V25.2188C35.1562 25.0125 35.325 24.8438 35.5312 24.8438H39.2812C39.4875 24.8438 39.6562 25.0125 39.6562 25.2188V27.2812Z" fill="#421ABC"/>
</svg>
