<svg width="48" height="48" viewBox="0 0 48 48" fill="none" xmlns="http://www.w3.org/2000/svg">
<path d="M18.214 10.896C19.41 7.396 24.246 7.29 25.664 10.578L25.784 10.898L27.398 15.618C27.7679 16.7005 28.3656 17.691 29.1508 18.5228C29.9361 19.3547 30.8906 20.0084 31.95 20.44L32.384 20.602L37.104 22.214C40.604 23.41 40.71 28.246 37.424 29.664L37.104 29.784L32.384 31.398C31.3011 31.7676 30.3102 32.3653 29.478 33.1505C28.6458 33.9358 27.9918 34.8904 27.56 35.95L27.398 36.382L25.786 41.104C24.59 44.604 19.754 44.71 18.338 41.424L18.214 41.104L16.602 36.384C16.2323 35.3012 15.6347 34.3102 14.8494 33.478C14.0642 32.6459 13.1096 31.9918 12.05 31.56L11.618 31.398L6.89796 29.786C3.39596 28.59 3.28996 23.754 6.57796 22.338L6.89796 22.214L11.618 20.602C12.7004 20.2321 13.691 19.6344 14.5228 18.8491C15.3546 18.0639 16.0084 17.1094 16.44 16.05L16.602 15.618L18.214 10.896ZM38 4C38.3741 4 38.7408 4.10496 39.0583 4.30294C39.3758 4.50093 39.6313 4.78401 39.796 5.12L39.892 5.354L40.592 7.406L42.646 8.106C43.0209 8.23339 43.3496 8.46923 43.5904 8.78363C43.8312 9.09803 43.9732 9.47684 43.9985 9.87204C44.0238 10.2672 43.9312 10.6611 43.7324 11.0036C43.5336 11.3461 43.2376 11.6219 42.882 11.796L42.646 11.892L40.594 12.592L39.894 14.646C39.7663 15.0209 39.5303 15.3494 39.2158 15.59C38.9013 15.8306 38.5224 15.9724 38.1272 15.9974C37.7321 16.0225 37.3383 15.9297 36.9959 15.7308C36.6535 15.5318 36.3779 15.2357 36.204 14.88L36.108 14.646L35.408 12.594L33.354 11.894C32.979 11.7666 32.6503 11.5308 32.4095 11.2164C32.1687 10.902 32.0267 10.5232 32.0014 10.128C31.9761 9.73275 32.0688 9.33894 32.2675 8.99643C32.4663 8.65391 32.7623 8.37812 33.118 8.204L33.354 8.108L35.406 7.408L36.106 5.354C36.2408 4.95885 36.496 4.61582 36.8356 4.373C37.1753 4.13018 37.5824 3.99975 38 4Z" fill="#421ABC"/>
</svg>
