<svg width="48" height="48" viewBox="0 0 48 48" fill="none" xmlns="http://www.w3.org/2000/svg">
<path d="M40.625 5H7.375C6.74511 5 6.14102 5.25022 5.69562 5.69562C5.25022 6.14102 5 6.74511 5 7.375V40.625C5 41.2549 5.25022 41.859 5.69562 42.3044C6.14102 42.7498 6.74511 43 7.375 43H40.625C41.2549 43 41.859 42.7498 42.3044 42.3044C42.7498 41.859 43 41.2549 43 40.625V7.375C43 6.74511 42.7498 6.14102 42.3044 5.69562C41.859 5.25022 41.2549 5 40.625 5ZM10.1458 12.125C10.1499 11.8113 10.2764 11.5117 10.4982 11.2898C10.72 11.068 11.0197 10.9416 11.3333 10.9375H20.8333C21.147 10.9416 21.4467 11.068 21.6685 11.2898C21.8903 11.5117 22.0167 11.8113 22.0208 12.125V14.5C22.0208 14.8149 21.8957 15.117 21.673 15.3397C21.4503 15.5624 21.1483 15.6875 20.8333 15.6875C20.5184 15.6875 20.2163 15.5624 19.9936 15.3397C19.7709 15.117 19.6458 14.8149 19.6458 14.5V13.3125H17.2708V21.2292C17.2708 21.5441 17.1457 21.8462 16.923 22.0689C16.7003 22.2916 16.3983 22.4167 16.0833 22.4167C15.7684 22.4167 15.4663 22.2916 15.2436 22.0689C15.0209 21.8462 14.8958 21.5441 14.8958 21.2292V13.3125H12.5208V14.5C12.5208 14.8149 12.3957 15.117 12.173 15.3397C11.9503 15.5624 11.6483 15.6875 11.3333 15.6875C11.0184 15.6875 10.7163 15.5624 10.4936 15.3397C10.2709 15.117 10.1458 14.8149 10.1458 14.5V12.125ZM35.875 37.0625H11.3333C11.0184 37.0625 10.7163 36.9374 10.4936 36.7147C10.2709 36.492 10.1458 36.1899 10.1458 35.875C10.1458 35.5601 10.2709 35.258 10.4936 35.0353C10.7163 34.8126 11.0184 34.6875 11.3333 34.6875H35.875C36.1899 34.6875 36.492 34.8126 36.7147 35.0353C36.9374 35.258 37.0625 35.5601 37.0625 35.875C37.0625 36.1899 36.9374 36.492 36.7147 36.7147C36.492 36.9374 36.1899 37.0625 35.875 37.0625ZM35.875 29.1458H11.3333C11.0184 29.1458 10.7163 29.0207 10.4936 28.798C10.2709 28.5753 10.1458 28.2733 10.1458 27.9583C10.1458 27.6434 10.2709 27.3413 10.4936 27.1186C10.7163 26.8959 11.0184 26.7708 11.3333 26.7708H35.875C36.1899 26.7708 36.492 26.8959 36.7147 27.1186C36.9374 27.3413 37.0625 27.6434 37.0625 27.9583C37.0625 28.2733 36.9374 28.5753 36.7147 28.798C36.492 29.0207 36.1899 29.1458 35.875 29.1458ZM35.875 21.2292H25.9792C25.6642 21.2292 25.3622 21.1041 25.1395 20.8814C24.9168 20.6587 24.7917 20.3566 24.7917 20.0417C24.7917 19.7267 24.9168 19.4247 25.1395 19.202C25.3622 18.9793 25.6642 18.8542 25.9792 18.8542H35.875C36.1899 18.8542 36.492 18.9793 36.7147 19.202C36.9374 19.4247 37.0625 19.7267 37.0625 20.0417C37.0625 20.3566 36.9374 20.6587 36.7147 20.8814C36.492 21.1041 36.1899 21.2292 35.875 21.2292ZM35.875 13.3125H25.9792C25.6642 13.3125 25.3622 13.1874 25.1395 12.9647C24.9168 12.742 24.7917 12.4399 24.7917 12.125C24.7917 11.8101 24.9168 11.508 25.1395 11.2853C25.3622 11.0626 25.6642 10.9375 25.9792 10.9375H35.875C36.1899 10.9375 36.492 11.0626 36.7147 11.2853C36.9374 11.508 37.0625 11.8101 37.0625 12.125C37.0625 12.4399 36.9374 12.742 36.7147 12.9647C36.492 13.1874 36.1899 13.3125 35.875 13.3125Z" fill="#421ABC"/>
</svg>
