<svg width="141" height="32" viewBox="0 0 141 32" fill="none" xmlns="http://www.w3.org/2000/svg">
<path d="M17.4199 7.94946L6.27637 11.7542V22.0286L0 24.1711V7.51978L17.4199 1.57251V7.94946Z" fill="#CC4E32"/>
<path fill-rule="evenodd" clip-rule="evenodd" d="M8.88086 13.3166L26.3003 7.36944V24.0214L8.88086 29.9686V13.3166Z" fill="#CC4E32"/>
<path d="M41.0207 18.2187L35.218 9.00267H38.5673L43.0687 16.384H41.1487L45.65 9.00267H48.9567L43.09 18.2187H41.0207ZM40.6367 24V16.6613H43.5593V24H40.6367ZM52.3098 24.2133C51.2716 24.2133 50.3329 23.9787 49.4938 23.5093C48.6689 23.0258 48.0076 22.3787 47.5098 21.568C47.0263 20.7431 46.7845 19.8258 46.7845 18.816C46.7845 17.8062 47.0263 16.9031 47.5098 16.1067C47.9934 15.296 48.6547 14.656 49.4938 14.1867C50.3329 13.7031 51.2645 13.4613 52.2885 13.4613C53.3409 13.4613 54.2796 13.7031 55.1045 14.1867C55.9436 14.656 56.6049 15.296 57.0885 16.1067C57.572 16.9031 57.8138 17.8062 57.8138 18.816C57.8138 19.8258 57.572 20.7431 57.0885 21.568C56.6049 22.3787 55.9436 23.0258 55.1045 23.5093C54.2796 23.9787 53.348 24.2133 52.3098 24.2133ZM52.2885 21.6107C52.8147 21.6107 53.2769 21.4969 53.6752 21.2693C54.0876 21.0276 54.4005 20.7004 54.6138 20.288C54.8414 19.8613 54.9552 19.3778 54.9552 18.8373C54.9552 18.2969 54.8414 17.8204 54.6138 17.408C54.3863 16.9956 54.0734 16.6756 53.6752 16.448C53.2769 16.2062 52.8147 16.0853 52.2885 16.0853C51.7765 16.0853 51.3214 16.2062 50.9232 16.448C50.5249 16.6756 50.212 16.9956 49.9845 17.408C49.7569 17.8204 49.6432 18.2969 49.6432 18.8373C49.6432 19.3778 49.7569 19.8613 49.9845 20.288C50.212 20.7004 50.5249 21.0276 50.9232 21.2693C51.3214 21.4969 51.7765 21.6107 52.2885 21.6107ZM64.0077 24.2133C63.0974 24.2133 62.2868 24.0213 61.5757 23.6373C60.8788 23.2533 60.3312 22.72 59.933 22.0373C59.5348 21.3547 59.3357 20.5653 59.3357 19.6693V13.696H62.1517V19.6053C62.1517 20.032 62.2228 20.4018 62.365 20.7147C62.5072 21.0133 62.7205 21.2409 63.005 21.3973C63.2894 21.5538 63.6237 21.632 64.0077 21.632C64.5908 21.632 65.0459 21.4542 65.373 21.0987C65.7001 20.7431 65.8637 20.2453 65.8637 19.6053V13.696H68.6583V19.6693C68.6583 20.5796 68.4592 21.376 68.061 22.0587C67.677 22.7413 67.1294 23.2747 66.4183 23.6587C65.7214 24.0284 64.9179 24.2133 64.0077 24.2133ZM70.8838 24V13.696H73.6785V24H70.8838ZM73.6785 18.304L72.5905 17.5787C72.7185 16.3129 73.0883 15.3173 73.6998 14.592C74.3114 13.8524 75.1932 13.4827 76.3452 13.4827C76.8429 13.4827 77.2909 13.568 77.6892 13.7387C78.0874 13.8951 78.45 14.1582 78.7772 14.528L77.0278 16.5333C76.8714 16.3627 76.6794 16.2347 76.4518 16.1493C76.2385 16.064 75.9896 16.0213 75.7052 16.0213C75.1078 16.0213 74.6172 16.2133 74.2332 16.5973C73.8634 16.9671 73.6785 17.536 73.6785 18.304ZM84.5992 24V9.00267H87.5005V24H84.5992ZM86.7325 24V21.4187H94.3698V24H86.7325ZM100.726 24.2133C99.6883 24.2133 98.7496 23.9787 97.9105 23.5093C97.0856 23.0258 96.4243 22.3787 95.9265 21.568C95.4429 20.7431 95.2012 19.8258 95.2012 18.816C95.2012 17.8062 95.4429 16.9031 95.9265 16.1067C96.41 15.296 97.0714 14.656 97.9105 14.1867C98.7496 13.7031 99.6812 13.4613 100.705 13.4613C101.758 13.4613 102.696 13.7031 103.521 14.1867C104.36 14.656 105.022 15.296 105.505 16.1067C105.989 16.9031 106.23 17.8062 106.23 18.816C106.23 19.8258 105.989 20.7431 105.505 21.568C105.022 22.3787 104.36 23.0258 103.521 23.5093C102.696 23.9787 101.765 24.2133 100.726 24.2133ZM100.705 21.6107C101.231 21.6107 101.694 21.4969 102.092 21.2693C102.504 21.0276 102.817 20.7004 103.03 20.288C103.258 19.8613 103.372 19.3778 103.372 18.8373C103.372 18.2969 103.258 17.8204 103.03 17.408C102.803 16.9956 102.49 16.6756 102.092 16.448C101.694 16.2062 101.231 16.0853 100.705 16.0853C100.193 16.0853 99.738 16.2062 99.3398 16.448C98.9416 16.6756 98.6287 16.9956 98.4012 17.408C98.1736 17.8204 98.0598 18.2969 98.0598 18.8373C98.0598 19.3778 98.1736 19.8613 98.4012 20.288C98.6287 20.7004 98.9416 21.0276 99.3398 21.2693C99.738 21.4969 100.193 21.6107 100.705 21.6107ZM112.339 28.5653C111.244 28.5653 110.277 28.3662 109.438 27.968C108.599 27.584 107.93 27.0364 107.432 26.3253L109.203 24.5547C109.601 25.024 110.042 25.3796 110.526 25.6213C111.023 25.8773 111.621 26.0053 112.318 26.0053C113.185 26.0053 113.868 25.7849 114.366 25.344C114.878 24.9031 115.134 24.2916 115.134 23.5093V20.928L115.603 18.6667L115.155 16.4053V13.696H117.928V23.4667C117.928 24.4907 117.687 25.3796 117.203 26.1333C116.734 26.9013 116.079 27.4987 115.24 27.9253C114.401 28.352 113.434 28.5653 112.339 28.5653ZM112.211 23.7227C111.287 23.7227 110.455 23.5022 109.715 23.0613C108.975 22.6062 108.392 21.9876 107.966 21.2053C107.553 20.4231 107.347 19.5484 107.347 18.5813C107.347 17.6142 107.553 16.7467 107.966 15.9787C108.392 15.2107 108.975 14.6062 109.715 14.1653C110.455 13.7102 111.287 13.4827 112.211 13.4827C112.979 13.4827 113.655 13.632 114.238 13.9307C114.835 14.2293 115.304 14.6418 115.646 15.168C115.987 15.68 116.172 16.2844 116.2 16.9813V20.224C116.172 20.9067 115.98 21.5182 115.624 22.0587C115.283 22.5849 114.814 22.9973 114.216 23.296C113.633 23.5804 112.965 23.7227 112.211 23.7227ZM112.766 21.184C113.278 21.184 113.719 21.0773 114.088 20.864C114.472 20.6364 114.771 20.3307 114.984 19.9467C115.198 19.5484 115.304 19.1004 115.304 18.6027C115.304 18.0907 115.198 17.6427 114.984 17.2587C114.771 16.8747 114.472 16.576 114.088 16.3627C113.719 16.1351 113.278 16.0213 112.766 16.0213C112.254 16.0213 111.806 16.1351 111.422 16.3627C111.038 16.576 110.739 16.8818 110.526 17.28C110.312 17.664 110.206 18.1049 110.206 18.6027C110.206 19.0862 110.312 19.5271 110.526 19.9253C110.739 20.3093 111.038 20.6151 111.422 20.8427C111.806 21.0702 112.254 21.184 112.766 21.184ZM125.226 24.2133C124.188 24.2133 123.25 23.9787 122.41 23.5093C121.586 23.0258 120.924 22.3787 120.426 21.568C119.943 20.7431 119.701 19.8258 119.701 18.816C119.701 17.8062 119.943 16.9031 120.426 16.1067C120.91 15.296 121.571 14.656 122.41 14.1867C123.25 13.7031 124.181 13.4613 125.205 13.4613C126.258 13.4613 127.196 13.7031 128.021 14.1867C128.86 14.656 129.522 15.296 130.005 16.1067C130.489 16.9031 130.73 17.8062 130.73 18.816C130.73 19.8258 130.489 20.7431 130.005 21.568C129.522 22.3787 128.86 23.0258 128.021 23.5093C127.196 23.9787 126.265 24.2133 125.226 24.2133ZM125.205 21.6107C125.731 21.6107 126.194 21.4969 126.592 21.2693C127.004 21.0276 127.317 20.7004 127.53 20.288C127.758 19.8613 127.872 19.3778 127.872 18.8373C127.872 18.2969 127.758 17.8204 127.53 17.408C127.303 16.9956 126.99 16.6756 126.592 16.448C126.194 16.2062 125.731 16.0853 125.205 16.0853C124.693 16.0853 124.238 16.2062 123.84 16.448C123.442 16.6756 123.129 16.9956 122.901 17.408C122.674 17.8204 122.56 18.2969 122.56 18.8373C122.56 19.3778 122.674 19.8613 122.901 20.288C123.129 20.7004 123.442 21.0276 123.84 21.2693C124.238 21.4969 124.693 21.6107 125.205 21.6107Z" fill="black"/>
</svg>
