<svg width="160" height="36" viewBox="0 0 160 36" fill="none" xmlns="http://www.w3.org/2000/svg">
<path d="M48.3523 12.5881V9.54545H62.6875V12.5881H57.3438V27H53.696V12.5881H48.3523ZM69.0476 27.2557C67.701 27.2557 66.5419 26.983 65.5703 26.4375C64.6044 25.8864 63.8601 25.108 63.3374 24.1023C62.8146 23.0909 62.5533 21.8949 62.5533 20.5142C62.5533 19.1676 62.8146 17.9858 63.3374 16.9688C63.8601 15.9517 64.5959 15.1591 65.5447 14.5909C66.4993 14.0227 67.6186 13.7386 68.9027 13.7386C69.7663 13.7386 70.5703 13.8778 71.3146 14.1562C72.0646 14.429 72.718 14.8409 73.2749 15.392C73.8374 15.9432 74.2749 16.6364 74.5874 17.4716C74.8999 18.3011 75.0561 19.2727 75.0561 20.3864V21.3835H64.0021V19.1335H71.6385C71.6385 18.6108 71.5249 18.1477 71.2976 17.7443C71.0703 17.3409 70.755 17.0256 70.3516 16.7983C69.9538 16.5653 69.4908 16.4489 68.9624 16.4489C68.4112 16.4489 67.9226 16.5767 67.4964 16.8324C67.076 17.0824 66.7464 17.4205 66.5078 17.8466C66.2692 18.267 66.147 18.7358 66.1413 19.2528V21.392C66.1413 22.0398 66.2607 22.5994 66.4993 23.071C66.7436 23.5426 67.0874 23.9062 67.5305 24.1619C67.9737 24.4176 68.4993 24.5455 69.1072 24.5455C69.5107 24.5455 69.88 24.4886 70.2152 24.375C70.5504 24.2614 70.8374 24.0909 71.076 23.8636C71.3146 23.6364 71.4964 23.358 71.6214 23.0284L74.9794 23.25C74.8089 24.0568 74.4595 24.7614 73.9311 25.3636C73.4084 25.9602 72.7322 26.4261 71.9027 26.7614C71.0788 27.0909 70.1271 27.2557 69.0476 27.2557ZM83.3402 27.2557C81.9993 27.2557 80.8459 26.9716 79.88 26.4034C78.9197 25.8295 78.1811 25.0341 77.6641 24.017C77.1527 23 76.897 21.8295 76.897 20.5057C76.897 19.1648 77.1555 17.9886 77.6726 16.9773C78.1953 15.9602 78.9368 15.1676 79.897 14.5994C80.8572 14.0256 81.9993 13.7386 83.3232 13.7386C84.4652 13.7386 85.4652 13.946 86.3232 14.3608C87.1811 14.7756 87.8601 15.358 88.3601 16.108C88.8601 16.858 89.1357 17.7386 89.1868 18.75H85.7607C85.6641 18.0966 85.4084 17.571 84.9936 17.1733C84.5845 16.7699 84.0476 16.5682 83.3828 16.5682C82.8203 16.5682 82.3288 16.7216 81.9084 17.0284C81.4936 17.3295 81.1697 17.7699 80.9368 18.3494C80.7038 18.929 80.5874 19.6307 80.5874 20.4545C80.5874 21.2898 80.701 22 80.9283 22.5852C81.1612 23.1705 81.4879 23.6165 81.9084 23.9233C82.3288 24.2301 82.8203 24.3835 83.3828 24.3835C83.7976 24.3835 84.1697 24.2983 84.4993 24.1278C84.8345 23.9574 85.1101 23.7102 85.326 23.3864C85.5476 23.0568 85.6925 22.6619 85.7607 22.2017H89.1868C89.13 23.2017 88.8572 24.0824 88.3686 24.8438C87.8857 25.5994 87.218 26.1903 86.3658 26.6165C85.5135 27.0426 84.505 27.2557 83.3402 27.2557ZM95.142 19.4318V27H91.5114V9.54545H95.0398V16.2188H95.1932C95.4886 15.446 95.9659 14.8409 96.625 14.4034C97.2841 13.9602 98.1108 13.7386 99.1051 13.7386C100.014 13.7386 100.807 13.9375 101.483 14.3352C102.165 14.7273 102.693 15.2926 103.068 16.0312C103.449 16.7642 103.636 17.642 103.631 18.6648V27H100V19.3125C100.006 18.5057 99.8011 17.8778 99.3864 17.429C98.9773 16.9801 98.4034 16.7557 97.6648 16.7557C97.1705 16.7557 96.733 16.8608 96.3523 17.071C95.9773 17.2812 95.6818 17.5881 95.4659 17.9915C95.2557 18.3892 95.1477 18.8693 95.142 19.4318ZM108.61 27.2216C108.048 27.2216 107.565 27.0227 107.161 26.625C106.763 26.2216 106.565 25.7386 106.565 25.1761C106.565 24.6193 106.763 24.142 107.161 23.7443C107.565 23.3466 108.048 23.1477 108.61 23.1477C109.156 23.1477 109.633 23.3466 110.042 23.7443C110.451 24.142 110.656 24.6193 110.656 25.1761C110.656 25.5511 110.559 25.8949 110.366 26.2074C110.178 26.5142 109.931 26.7614 109.624 26.9489C109.317 27.1307 108.979 27.2216 108.61 27.2216Z" fill="#FDFDFD"/>
</svg>
