<svg width="1160" height="104" viewBox="0 0 1160 104" fill="none" xmlns="http://www.w3.org/2000/svg">
<path d="M445.074 13.9091H452.66L460.671 33.4545H461.012L469.023 13.9091H476.609V43H470.643V24.0653H470.401L462.873 42.858H458.81L451.282 23.9943H451.04V43H445.074V13.9091ZM490.306 43.4261C488.061 43.4261 486.129 42.9716 484.51 42.0625C482.9 41.1439 481.66 39.8466 480.789 38.1705C479.917 36.4848 479.482 34.4915 479.482 32.1903C479.482 29.946 479.917 27.9763 480.789 26.2812C481.66 24.5862 482.886 23.2652 484.468 22.3182C486.058 21.3712 487.924 20.8977 490.064 20.8977C491.504 20.8977 492.843 21.1297 494.084 21.5938C495.334 22.0483 496.423 22.7348 497.351 23.6534C498.289 24.572 499.018 25.7273 499.539 27.1193C500.059 28.5019 500.32 30.1212 500.32 31.9773V33.6392H481.896V29.8892H494.624C494.624 29.018 494.434 28.2462 494.056 27.5739C493.677 26.9015 493.151 26.3759 492.479 25.9972C491.816 25.6089 491.044 25.4148 490.164 25.4148C489.245 25.4148 488.431 25.6278 487.72 26.054C487.02 26.4706 486.47 27.0341 486.073 27.7443C485.675 28.4451 485.471 29.2263 485.462 30.0881V33.6534C485.462 34.733 485.661 35.6657 486.058 36.4517C486.466 37.2377 487.039 37.8438 487.777 38.2699C488.516 38.696 489.392 38.9091 490.405 38.9091C491.077 38.9091 491.693 38.8144 492.252 38.625C492.81 38.4356 493.289 38.1515 493.686 37.7727C494.084 37.3939 494.387 36.9299 494.595 36.3807L500.192 36.75C499.908 38.0947 499.325 39.2689 498.445 40.2727C497.574 41.267 496.447 42.0436 495.064 42.6023C493.691 43.1515 492.105 43.4261 490.306 43.4261ZM513.012 43.4261C510.768 43.4261 508.836 42.9716 507.216 42.0625C505.607 41.1439 504.366 39.8466 503.495 38.1705C502.624 36.4848 502.188 34.4915 502.188 32.1903C502.188 29.946 502.624 27.9763 503.495 26.2812C504.366 24.5862 505.592 23.2652 507.174 22.3182C508.765 21.3712 510.63 20.8977 512.77 20.8977C514.21 20.8977 515.55 21.1297 516.79 21.5938C518.04 22.0483 519.129 22.7348 520.057 23.6534C520.995 24.572 521.724 25.7273 522.245 27.1193C522.766 28.5019 523.026 30.1212 523.026 31.9773V33.6392H504.603V29.8892H517.33C517.33 29.018 517.141 28.2462 516.762 27.5739C516.383 26.9015 515.857 26.3759 515.185 25.9972C514.522 25.6089 513.75 25.4148 512.87 25.4148C511.951 25.4148 511.137 25.6278 510.427 26.054C509.726 26.4706 509.177 27.0341 508.779 27.7443C508.381 28.4451 508.178 29.2263 508.168 30.0881V33.6534C508.168 34.733 508.367 35.6657 508.765 36.4517C509.172 37.2377 509.745 37.8438 510.483 38.2699C511.222 38.696 512.098 38.9091 513.111 38.9091C513.784 38.9091 514.399 38.8144 514.958 38.625C515.517 38.4356 515.995 38.1515 516.393 37.7727C516.79 37.3939 517.093 36.9299 517.302 36.3807L522.898 36.75C522.614 38.0947 522.032 39.2689 521.151 40.2727C520.28 41.267 519.153 42.0436 517.77 42.6023C516.397 43.1515 514.811 43.4261 513.012 43.4261ZM537.38 21.1818V25.7273H524.241V21.1818H537.38ZM527.224 15.9545H533.275V36.2955C533.275 36.8542 533.36 37.2898 533.531 37.6023C533.701 37.9053 533.938 38.1184 534.241 38.2415C534.553 38.3646 534.913 38.4261 535.32 38.4261C535.604 38.4261 535.889 38.4025 536.173 38.3551C536.457 38.2983 536.675 38.2557 536.826 38.2273L537.778 42.7301C537.475 42.8248 537.049 42.9337 536.499 43.0568C535.95 43.1894 535.283 43.2699 534.497 43.2983C533.038 43.3551 531.76 43.161 530.661 42.7159C529.572 42.2708 528.725 41.5795 528.119 40.642C527.513 39.7045 527.214 38.5208 527.224 37.0909V15.9545ZM559.785 21.1818V25.7273H546.646V21.1818H559.785ZM549.628 15.9545H555.68V36.2955C555.68 36.8542 555.765 37.2898 555.935 37.6023C556.106 37.9053 556.342 38.1184 556.646 38.2415C556.958 38.3646 557.318 38.4261 557.725 38.4261C558.009 38.4261 558.293 38.4025 558.577 38.3551C558.861 38.2983 559.079 38.2557 559.231 38.2273L560.182 42.7301C559.879 42.8248 559.453 42.9337 558.904 43.0568C558.355 43.1894 557.687 43.2699 556.901 43.2983C555.443 43.3551 554.164 43.161 553.066 42.7159C551.977 42.2708 551.129 41.5795 550.523 40.642C549.917 39.7045 549.619 38.5208 549.628 37.0909V15.9545ZM569.046 30.3864V43H562.995V13.9091H568.876V25.0312H569.132C569.624 23.7434 570.419 22.7348 571.518 22.0057C572.616 21.267 573.994 20.8977 575.651 20.8977C577.167 20.8977 578.488 21.2292 579.615 21.892C580.751 22.5455 581.632 23.4877 582.257 24.7188C582.891 25.9403 583.204 27.4034 583.194 29.108V43H577.143V30.1875C577.152 28.8428 576.812 27.7964 576.12 27.0483C575.438 26.3002 574.482 25.9261 573.251 25.9261C572.427 25.9261 571.698 26.1013 571.063 26.4517C570.438 26.8021 569.946 27.3134 569.586 27.9858C569.236 28.6487 569.056 29.4489 569.046 30.3864ZM596.699 43.4261C594.455 43.4261 592.523 42.9716 590.904 42.0625C589.294 41.1439 588.054 39.8466 587.182 38.1705C586.311 36.4848 585.876 34.4915 585.876 32.1903C585.876 29.946 586.311 27.9763 587.182 26.2812C588.054 24.5862 589.28 23.2652 590.861 22.3182C592.452 21.3712 594.318 20.8977 596.458 20.8977C597.897 20.8977 599.237 21.1297 600.478 21.5938C601.728 22.0483 602.817 22.7348 603.745 23.6534C604.682 24.572 605.412 25.7273 605.932 27.1193C606.453 28.5019 606.714 30.1212 606.714 31.9773V33.6392H588.29V29.8892H601.018C601.018 29.018 600.828 28.2462 600.449 27.5739C600.071 26.9015 599.545 26.3759 598.873 25.9972C598.21 25.6089 597.438 25.4148 596.557 25.4148C595.639 25.4148 594.824 25.6278 594.114 26.054C593.413 26.4706 592.864 27.0341 592.466 27.7443C592.069 28.4451 591.865 29.2263 591.856 30.0881V33.6534C591.856 34.733 592.054 35.6657 592.452 36.4517C592.859 37.2377 593.432 37.8438 594.171 38.2699C594.91 38.696 595.786 38.9091 596.799 38.9091C597.471 38.9091 598.087 38.8144 598.645 38.625C599.204 38.4356 599.682 38.1515 600.08 37.7727C600.478 37.3939 600.781 36.9299 600.989 36.3807L606.586 36.75C606.302 38.0947 605.719 39.2689 604.839 40.2727C603.967 41.267 602.84 42.0436 601.458 42.6023C600.085 43.1515 598.499 43.4261 596.699 43.4261ZM616.526 18.9801V13.9091H640.418V18.9801H631.512V43H625.432V18.9801H616.526ZM649.818 43.4261C647.574 43.4261 645.642 42.9716 644.023 42.0625C642.413 41.1439 641.172 39.8466 640.301 38.1705C639.43 36.4848 638.994 34.4915 638.994 32.1903C638.994 29.946 639.43 27.9763 640.301 26.2812C641.172 24.5862 642.399 23.2652 643.98 22.3182C645.571 21.3712 647.436 20.8977 649.577 20.8977C651.016 20.8977 652.356 21.1297 653.597 21.5938C654.847 22.0483 655.936 22.7348 656.864 23.6534C657.801 24.572 658.53 25.7273 659.051 27.1193C659.572 28.5019 659.832 30.1212 659.832 31.9773V33.6392H641.409V29.8892H654.136C654.136 29.018 653.947 28.2462 653.568 27.5739C653.189 26.9015 652.664 26.3759 651.991 25.9972C651.329 25.6089 650.557 25.4148 649.676 25.4148C648.757 25.4148 647.943 25.6278 647.233 26.054C646.532 26.4706 645.983 27.0341 645.585 27.7443C645.187 28.4451 644.984 29.2263 644.974 30.0881V33.6534C644.974 34.733 645.173 35.6657 645.571 36.4517C645.978 37.2377 646.551 37.8438 647.29 38.2699C648.028 38.696 648.904 38.9091 649.918 38.9091C650.59 38.9091 651.205 38.8144 651.764 38.625C652.323 38.4356 652.801 38.1515 653.199 37.7727C653.597 37.3939 653.9 36.9299 654.108 36.3807L659.704 36.75C659.42 38.0947 658.838 39.2689 657.957 40.2727C657.086 41.267 655.959 42.0436 654.577 42.6023C653.204 43.1515 651.617 43.4261 649.818 43.4261ZM668.803 43.4119C667.411 43.4119 666.17 43.1705 665.081 42.6875C663.992 42.1951 663.13 41.4706 662.496 40.5142C661.871 39.5483 661.558 38.3456 661.558 36.9062C661.558 35.6941 661.781 34.6761 662.226 33.8523C662.671 33.0284 663.277 32.3655 664.044 31.8636C664.811 31.3617 665.682 30.983 666.658 30.7273C667.643 30.4716 668.675 30.2917 669.754 30.1875C671.023 30.0549 672.046 29.9318 672.823 29.8182C673.599 29.6951 674.163 29.5152 674.513 29.2784C674.863 29.0417 675.039 28.6913 675.039 28.2273V28.142C675.039 27.2424 674.754 26.5464 674.186 26.054C673.628 25.5616 672.832 25.3153 671.8 25.3153C670.711 25.3153 669.844 25.5568 669.2 26.0398C668.557 26.5133 668.13 27.1098 667.922 27.8295L662.325 27.375C662.61 26.0492 663.168 24.9034 664.002 23.9375C664.835 22.9621 665.91 22.214 667.226 21.6932C668.552 21.1629 670.086 20.8977 671.828 20.8977C673.04 20.8977 674.2 21.0398 675.308 21.3239C676.426 21.608 677.415 22.0483 678.277 22.6449C679.148 23.2415 679.835 24.0085 680.337 24.946C680.839 25.8741 681.09 26.9867 681.09 28.2841V43H675.351V39.9744H675.181C674.83 40.6562 674.361 41.2576 673.774 41.7784C673.187 42.2898 672.482 42.6922 671.658 42.9858C670.834 43.2699 669.882 43.4119 668.803 43.4119ZM670.536 39.2358C671.426 39.2358 672.212 39.0606 672.894 38.7102C673.575 38.3504 674.111 37.8674 674.499 37.2614C674.887 36.6553 675.081 35.9687 675.081 35.2017V32.8864C674.892 33.0095 674.631 33.1231 674.3 33.2273C673.978 33.322 673.613 33.4119 673.206 33.4972C672.799 33.5729 672.392 33.6439 671.985 33.7102C671.577 33.767 671.208 33.8191 670.877 33.8665C670.166 33.9706 669.546 34.1364 669.016 34.3636C668.486 34.5909 668.074 34.8987 667.78 35.2869C667.486 35.6657 667.34 36.1392 667.34 36.7074C667.34 37.5312 667.638 38.161 668.235 38.5966C668.841 39.0227 669.608 39.2358 670.536 39.2358ZM684.584 43V21.1818H690.351V25.0312H690.607C691.062 23.7528 691.819 22.7443 692.88 22.0057C693.94 21.267 695.209 20.8977 696.687 20.8977C698.183 20.8977 699.456 21.2718 700.508 22.0199C701.559 22.7585 702.26 23.7623 702.61 25.0312H702.837C703.282 23.7812 704.087 22.7822 705.252 22.0341C706.426 21.2765 707.813 20.8977 709.414 20.8977C711.45 20.8977 713.102 21.5464 714.371 22.8438C715.65 24.1316 716.289 25.9593 716.289 28.3267V43H710.252V29.5199C710.252 28.3078 709.93 27.3987 709.286 26.7926C708.642 26.1866 707.837 25.8835 706.871 25.8835C705.773 25.8835 704.916 26.2339 704.3 26.9347C703.685 27.6259 703.377 28.5398 703.377 29.6761V43H697.51V29.392C697.51 28.322 697.203 27.4697 696.587 26.8352C695.981 26.2008 695.181 25.8835 694.187 25.8835C693.514 25.8835 692.908 26.054 692.368 26.3949C691.838 26.7263 691.417 27.1951 691.104 27.8011C690.792 28.3977 690.635 29.0985 690.635 29.9034V43H684.584Z" fill="#FDFDFD"/>
<path d="M433.642 95H431.98L436.786 81.9091H438.423L443.23 95H441.568L437.656 83.9801H437.553L433.642 95ZM434.255 89.8864H440.954V91.2926H434.255V89.8864ZM453.01 98.8864C452.281 98.8864 451.655 98.7926 451.13 98.6051C450.606 98.4219 450.169 98.179 449.82 97.8764C449.475 97.5781 449.2 97.2585 448.995 96.9176L450.197 96.0739C450.334 96.2528 450.506 96.4574 450.715 96.6875C450.924 96.9219 451.209 97.1243 451.571 97.2947C451.938 97.4695 452.417 97.5568 453.01 97.5568C453.802 97.5568 454.456 97.3651 454.972 96.9815C455.488 96.598 455.745 95.9972 455.745 95.179V93.1847H455.618C455.507 93.3636 455.349 93.5852 455.145 93.8494C454.944 94.1094 454.655 94.3416 454.275 94.5462C453.9 94.7464 453.393 94.8466 452.754 94.8466C451.961 94.8466 451.25 94.6591 450.619 94.2841C449.993 93.9091 449.496 93.3636 449.13 92.6477C448.767 91.9318 448.586 91.0625 448.586 90.0398C448.586 89.0341 448.763 88.1584 449.117 87.4126C449.471 86.6626 449.963 86.0831 450.593 85.674C451.224 85.2607 451.953 85.054 452.78 85.054C453.419 85.054 453.926 85.1605 454.301 85.3736C454.68 85.5824 454.97 85.821 455.17 86.0895C455.375 86.3537 455.532 86.571 455.643 86.7415H455.797V85.1818H457.254V95.2812C457.254 96.125 457.062 96.8111 456.679 97.3395C456.299 97.8722 455.788 98.2621 455.145 98.5092C454.505 98.7607 453.794 98.8864 453.01 98.8864ZM452.959 93.4915C453.564 93.4915 454.075 93.353 454.493 93.076C454.91 92.799 455.228 92.4006 455.445 91.8807C455.662 91.3608 455.771 90.7386 455.771 90.0142C455.771 89.3068 455.665 88.6825 455.451 88.1413C455.238 87.6001 454.923 87.1761 454.505 86.8693C454.088 86.5625 453.572 86.4091 452.959 86.4091C452.319 86.4091 451.787 86.571 451.361 86.8949C450.939 87.2187 450.621 87.6534 450.408 88.1989C450.199 88.7443 450.095 89.3494 450.095 90.0142C450.095 90.696 450.201 91.299 450.415 91.8232C450.632 92.343 450.951 92.7521 451.373 93.0504C451.799 93.3445 452.328 93.4915 452.959 93.4915ZM459.475 95V85.1818H460.933V86.6648H461.035C461.214 86.179 461.538 85.7848 462.007 85.4822C462.475 85.1797 463.004 85.0284 463.592 85.0284C463.703 85.0284 463.841 85.0305 464.007 85.0348C464.174 85.0391 464.299 85.0455 464.384 85.054V86.5881C464.333 86.5753 464.216 86.5561 464.033 86.5305C463.854 86.5007 463.664 86.4858 463.464 86.4858C462.987 86.4858 462.561 86.5859 462.186 86.7862C461.815 86.9822 461.521 87.255 461.303 87.6044C461.09 87.9496 460.984 88.3437 460.984 88.7869V95H459.475ZM469.322 95.2045C468.436 95.2045 467.658 94.9936 466.989 94.5717C466.325 94.1499 465.805 93.5597 465.43 92.8011C465.059 92.0426 464.874 91.1562 464.874 90.142C464.874 89.1193 465.059 88.2266 465.43 87.4638C465.805 86.701 466.325 86.1087 466.989 85.6868C467.658 85.2649 468.436 85.054 469.322 85.054C470.209 85.054 470.984 85.2649 471.649 85.6868C472.318 86.1087 472.838 86.701 473.209 87.4638C473.584 88.2266 473.771 89.1193 473.771 90.142C473.771 91.1562 473.584 92.0426 473.209 92.8011C472.838 93.5597 472.318 94.1499 471.649 94.5717C470.984 94.9936 470.209 95.2045 469.322 95.2045ZM469.322 93.8494C469.996 93.8494 470.55 93.6768 470.984 93.3317C471.419 92.9865 471.741 92.5327 471.95 91.9702C472.158 91.4077 472.263 90.7983 472.263 90.142C472.263 89.4858 472.158 88.8743 471.95 88.3075C471.741 87.7408 471.419 87.2827 470.984 86.9332C470.55 86.5838 469.996 86.4091 469.322 86.4091C468.649 86.4091 468.095 86.5838 467.66 86.9332C467.226 87.2827 466.904 87.7408 466.695 88.3075C466.486 88.8743 466.382 89.4858 466.382 90.142C466.382 90.7983 466.486 91.4077 466.695 91.9702C466.904 92.5327 467.226 92.9865 467.66 93.3317C468.095 93.6768 468.649 93.8494 469.322 93.8494ZM481.722 90.9858V85.1818H483.23V95H481.722V93.3381H481.619C481.389 93.8366 481.031 94.2607 480.545 94.6101C480.06 94.9553 479.446 95.1278 478.704 95.1278C478.091 95.1278 477.545 94.9936 477.068 94.7251C476.591 94.4524 476.216 94.0433 475.943 93.4979C475.67 92.9482 475.534 92.2557 475.534 91.4205V85.1818H477.043V91.3182C477.043 92.0341 477.243 92.6051 477.643 93.0312C478.048 93.4574 478.564 93.6705 479.19 93.6705C479.565 93.6705 479.947 93.5746 480.334 93.3828C480.726 93.1911 481.055 92.897 481.319 92.5007C481.587 92.1044 481.722 91.5994 481.722 90.9858ZM485.453 98.6818V85.1818H486.91V86.7415H487.089C487.2 86.571 487.354 86.3537 487.55 86.0895C487.75 85.821 488.035 85.5824 488.406 85.3736C488.781 85.1605 489.288 85.054 489.927 85.054C490.754 85.054 491.483 85.2607 492.114 85.674C492.744 86.0874 493.236 86.6733 493.59 87.4318C493.944 88.1903 494.121 89.0852 494.121 90.1165C494.121 91.1562 493.944 92.0575 493.59 92.8203C493.236 93.5788 492.746 94.1669 492.12 94.5845C491.493 94.9979 490.771 95.2045 489.953 95.2045C489.322 95.2045 488.817 95.1001 488.438 94.8913C488.059 94.6783 487.767 94.4375 487.562 94.169C487.358 93.8963 487.2 93.6705 487.089 93.4915H486.962V98.6818H485.453ZM486.936 90.0909C486.936 90.8324 487.045 91.4865 487.262 92.0533C487.479 92.6158 487.797 93.0568 488.214 93.3764C488.632 93.6918 489.143 93.8494 489.748 93.8494C490.379 93.8494 490.905 93.6832 491.327 93.3509C491.753 93.0142 492.073 92.5625 492.286 91.9957C492.503 91.4247 492.612 90.7898 492.612 90.0909C492.612 89.4006 492.506 88.7784 492.292 88.2244C492.084 87.6662 491.766 87.2251 491.34 86.9013C490.918 86.5732 490.388 86.4091 489.748 86.4091C489.135 86.4091 488.619 86.5646 488.202 86.8757C487.784 87.1825 487.469 87.6129 487.256 88.1669C487.042 88.7166 486.936 89.358 486.936 90.0909ZM504.393 95.2045C503.507 95.2045 502.729 94.9936 502.06 94.5717C501.395 94.1499 500.875 93.5597 500.5 92.8011C500.129 92.0426 499.944 91.1562 499.944 90.142C499.944 89.1193 500.129 88.2266 500.5 87.4638C500.875 86.701 501.395 86.1087 502.06 85.6868C502.729 85.2649 503.507 85.054 504.393 85.054C505.279 85.054 506.055 85.2649 506.72 85.6868C507.389 86.1087 507.909 86.701 508.279 87.4638C508.654 88.2266 508.842 89.1193 508.842 90.142C508.842 91.1562 508.654 92.0426 508.279 92.8011C507.909 93.5597 507.389 94.1499 506.72 94.5717C506.055 94.9936 505.279 95.2045 504.393 95.2045ZM504.393 93.8494C505.066 93.8494 505.62 93.6768 506.055 93.3317C506.489 92.9865 506.811 92.5327 507.02 91.9702C507.229 91.4077 507.333 90.7983 507.333 90.142C507.333 89.4858 507.229 88.8743 507.02 88.3075C506.811 87.7408 506.489 87.2827 506.055 86.9332C505.62 86.5838 505.066 86.4091 504.393 86.4091C503.72 86.4091 503.166 86.5838 502.731 86.9332C502.296 87.2827 501.975 87.7408 501.766 88.3075C501.557 88.8743 501.453 89.4858 501.453 90.142C501.453 90.7983 501.557 91.4077 501.766 91.9702C501.975 92.5327 502.296 92.9865 502.731 93.3317C503.166 93.6768 503.72 93.8494 504.393 93.8494ZM514.977 85.1818V86.4602H509.684V85.1818H514.977ZM511.269 95V83.8267C511.269 83.2642 511.401 82.7955 511.666 82.4205C511.93 82.0455 512.273 81.7642 512.695 81.5767C513.117 81.3892 513.562 81.2955 514.031 81.2955C514.401 81.2955 514.704 81.3253 514.938 81.3849C515.173 81.4446 515.347 81.5 515.462 81.5511L515.028 82.8551C514.951 82.8295 514.845 82.7976 514.708 82.7592C514.576 82.7209 514.401 82.7017 514.184 82.7017C513.685 82.7017 513.325 82.8274 513.104 83.0788C512.886 83.3303 512.778 83.6989 512.778 84.1847V95H511.269ZM525.445 85.1818V86.4602H520.153V85.1818H525.445ZM521.738 95V83.8267C521.738 83.2642 521.87 82.7955 522.134 82.4205C522.399 82.0455 522.742 81.7642 523.164 81.5767C523.585 81.3892 524.031 81.2955 524.499 81.2955C524.87 81.2955 525.173 81.3253 525.407 81.3849C525.641 81.4446 525.816 81.5 525.931 81.5511L525.497 82.8551C525.42 82.8295 525.313 82.7976 525.177 82.7592C525.045 82.7209 524.87 82.7017 524.653 82.7017C524.154 82.7017 523.794 82.8274 523.573 83.0788C523.355 83.3303 523.247 83.6989 523.247 84.1847V95H521.738ZM533.207 90.9858V85.1818H534.716V95H533.207V93.3381H533.105C532.875 93.8366 532.517 94.2607 532.031 94.6101C531.545 94.9553 530.932 95.1278 530.19 95.1278C529.576 95.1278 529.031 94.9936 528.554 94.7251C528.076 94.4524 527.701 94.0433 527.429 93.4979C527.156 92.9482 527.02 92.2557 527.02 91.4205V85.1818H528.528V91.3182C528.528 92.0341 528.728 92.6051 529.129 93.0312C529.534 93.4574 530.049 93.6705 530.676 93.6705C531.051 93.6705 531.432 93.5746 531.82 93.3828C532.212 93.1911 532.54 92.897 532.804 92.5007C533.073 92.1044 533.207 91.5994 533.207 90.9858ZM541.208 85.1818V86.4602H536.12V85.1818H541.208ZM537.603 82.8295H539.112V92.1875C539.112 92.6136 539.174 92.9332 539.297 93.1463C539.425 93.3551 539.587 93.4957 539.783 93.5682C539.983 93.6364 540.194 93.6705 540.416 93.6705C540.582 93.6705 540.718 93.6619 540.825 93.6449C540.932 93.6236 541.017 93.6065 541.081 93.5938L541.387 94.9489C541.285 94.9872 541.142 95.0256 540.959 95.0639C540.776 95.1065 540.544 95.1278 540.262 95.1278C539.836 95.1278 539.419 95.0362 539.01 94.853C538.605 94.6697 538.268 94.3906 538 94.0156C537.735 93.6406 537.603 93.1676 537.603 92.5966V82.8295ZM549.125 90.9858V85.1818H550.634V95H549.125V93.3381H549.023C548.793 93.8366 548.435 94.2607 547.949 94.6101C547.463 94.9553 546.85 95.1278 546.108 95.1278C545.495 95.1278 544.949 94.9936 544.472 94.7251C543.995 94.4524 543.62 94.0433 543.347 93.4979C543.074 92.9482 542.938 92.2557 542.938 91.4205V85.1818H544.446V91.3182C544.446 92.0341 544.646 92.6051 545.047 93.0312C545.452 93.4574 545.968 93.6705 546.594 93.6705C546.969 93.6705 547.35 93.5746 547.738 93.3828C548.13 93.1911 548.458 92.897 548.722 92.5007C548.991 92.1044 549.125 91.5994 549.125 90.9858ZM552.857 95V85.1818H554.314V86.6648H554.416C554.595 86.179 554.919 85.7848 555.388 85.4822C555.857 85.1797 556.385 85.0284 556.973 85.0284C557.084 85.0284 557.222 85.0305 557.389 85.0348C557.555 85.0391 557.681 85.0455 557.766 85.054V86.5881C557.715 86.5753 557.597 86.5561 557.414 86.5305C557.235 86.5007 557.046 86.4858 556.845 86.4858C556.368 86.4858 555.942 86.5859 555.567 86.7862C555.196 86.9822 554.902 87.255 554.685 87.6044C554.472 87.9496 554.365 88.3437 554.365 88.7869V95H552.857ZM562.832 95.2045C561.886 95.2045 561.069 94.9957 560.383 94.5781C559.702 94.1562 559.175 93.5682 558.805 92.8139C558.438 92.0554 558.255 91.1733 558.255 90.1676C558.255 89.1619 558.438 88.2756 558.805 87.5085C559.175 86.7372 559.691 86.1364 560.351 85.706C561.016 85.2713 561.792 85.054 562.678 85.054C563.19 85.054 563.694 85.1392 564.193 85.3097C564.692 85.4801 565.145 85.7571 565.555 86.1406C565.964 86.5199 566.29 87.0227 566.533 87.6491C566.775 88.2756 566.897 89.0469 566.897 89.9631V90.6023H559.329V89.2983H565.363C565.363 88.7443 565.252 88.25 565.03 87.8153C564.813 87.3807 564.502 87.0376 564.097 86.7862C563.697 86.5348 563.224 86.4091 562.678 86.4091C562.077 86.4091 561.557 86.5582 561.119 86.8565C560.684 87.1506 560.349 87.5341 560.115 88.0071C559.881 88.4801 559.763 88.9872 559.763 89.5284V90.3977C559.763 91.1392 559.891 91.7678 560.147 92.2834C560.407 92.7947 560.767 93.1847 561.227 93.4531C561.687 93.7173 562.222 93.8494 562.832 93.8494C563.228 93.8494 563.586 93.794 563.905 93.6832C564.229 93.5682 564.508 93.3977 564.743 93.1719C564.977 92.9418 565.158 92.6562 565.286 92.3153L566.744 92.7244C566.59 93.2188 566.332 93.6534 565.97 94.0284C565.608 94.3991 565.16 94.6889 564.628 94.8977C564.095 95.1023 563.496 95.2045 562.832 95.2045ZM574.277 88.6847V90.0909H568.549V88.6847H574.277ZM576.391 95V85.1818H577.848V86.6648H577.951C578.13 86.179 578.453 85.7848 578.922 85.4822C579.391 85.1797 579.919 85.0284 580.507 85.0284C580.618 85.0284 580.757 85.0305 580.923 85.0348C581.089 85.0391 581.215 85.0455 581.3 85.054V86.5881C581.249 86.5753 581.132 86.5561 580.948 86.5305C580.769 86.5007 580.58 86.4858 580.38 86.4858C579.902 86.4858 579.476 86.5859 579.101 86.7862C578.73 86.9822 578.436 87.255 578.219 87.6044C578.006 87.9496 577.899 88.3437 577.899 88.7869V95H576.391ZM586.366 95.2045C585.42 95.2045 584.604 94.9957 583.918 94.5781C583.236 94.1562 582.71 93.5682 582.339 92.8139C581.972 92.0554 581.789 91.1733 581.789 90.1676C581.789 89.1619 581.972 88.2756 582.339 87.5085C582.71 86.7372 583.225 86.1364 583.886 85.706C584.551 85.2713 585.326 85.054 586.212 85.054C586.724 85.054 587.229 85.1392 587.727 85.3097C588.226 85.4801 588.68 85.7571 589.089 86.1406C589.498 86.5199 589.824 87.0227 590.067 87.6491C590.31 88.2756 590.431 89.0469 590.431 89.9631V90.6023H582.863V89.2983H588.897C588.897 88.7443 588.786 88.25 588.565 87.8153C588.347 87.3807 588.036 87.0376 587.631 86.7862C587.231 86.5348 586.758 86.4091 586.212 86.4091C585.612 86.4091 585.092 86.5582 584.653 86.8565C584.218 87.1506 583.884 87.5341 583.649 88.0071C583.415 88.4801 583.298 88.9872 583.298 89.5284V90.3977C583.298 91.1392 583.426 91.7678 583.681 92.2834C583.941 92.7947 584.301 93.1847 584.761 93.4531C585.222 93.7173 585.756 93.8494 586.366 93.8494C586.762 93.8494 587.12 93.794 587.44 93.6832C587.764 93.5682 588.043 93.3977 588.277 93.1719C588.511 92.9418 588.693 92.6562 588.82 92.3153L590.278 92.7244C590.124 93.2188 589.867 93.6534 589.504 94.0284C589.142 94.3991 588.695 94.6889 588.162 94.8977C587.629 95.1023 587.031 95.2045 586.366 95.2045ZM595.075 95.2301C594.453 95.2301 593.888 95.1129 593.381 94.8786C592.874 94.6399 592.471 94.2969 592.173 93.8494C591.875 93.3977 591.726 92.8523 591.726 92.2131C591.726 91.6506 591.837 91.1946 592.058 90.8452C592.28 90.4915 592.576 90.2145 592.947 90.0142C593.317 89.8139 593.726 89.6648 594.174 89.5668C594.626 89.4645 595.079 89.3835 595.535 89.3239C596.132 89.2472 596.616 89.1896 596.986 89.1513C597.361 89.1087 597.634 89.0384 597.805 88.9403C597.979 88.8423 598.067 88.6719 598.067 88.429V88.3778C598.067 87.7472 597.894 87.2571 597.549 86.9077C597.208 86.5582 596.69 86.3835 595.996 86.3835C595.275 86.3835 594.711 86.5412 594.302 86.8565C593.893 87.1719 593.605 87.5085 593.439 87.8665L592.007 87.3551C592.263 86.7585 592.604 86.294 593.03 85.9616C593.46 85.625 593.929 85.3906 594.436 85.2585C594.947 85.1222 595.45 85.054 595.945 85.054C596.26 85.054 596.622 85.0923 597.031 85.169C597.445 85.2415 597.843 85.3928 598.226 85.6229C598.614 85.853 598.936 86.2003 599.192 86.6648C599.447 87.1293 599.575 87.7514 599.575 88.5312V95H598.067V93.6705H597.99C597.888 93.8835 597.717 94.1115 597.479 94.3544C597.24 94.5973 596.922 94.804 596.526 94.9744C596.13 95.1449 595.646 95.2301 595.075 95.2301ZM595.305 93.875C595.902 93.875 596.405 93.7578 596.814 93.5234C597.227 93.2891 597.538 92.9865 597.747 92.6158C597.96 92.245 598.067 91.8551 598.067 91.446V90.0653C598.003 90.142 597.862 90.2124 597.645 90.2763C597.432 90.3359 597.185 90.3892 596.903 90.4361C596.626 90.4787 596.356 90.517 596.092 90.5511C595.832 90.581 595.621 90.6065 595.459 90.6278C595.067 90.679 594.7 90.7621 594.359 90.8771C594.023 90.9879 593.75 91.1562 593.541 91.3821C593.337 91.6037 593.234 91.9062 593.234 92.2898C593.234 92.8139 593.428 93.2102 593.816 93.4787C594.208 93.7429 594.704 93.875 595.305 93.875ZM605.496 95.2045C604.678 95.2045 603.955 94.9979 603.329 94.5845C602.703 94.1669 602.213 93.5788 601.859 92.8203C601.505 92.0575 601.328 91.1562 601.328 90.1165C601.328 89.0852 601.505 88.1903 601.859 87.4318C602.213 86.6733 602.705 86.0874 603.335 85.674C603.966 85.2607 604.695 85.054 605.521 85.054C606.161 85.054 606.666 85.1605 607.036 85.3736C607.411 85.5824 607.697 85.821 607.893 86.0895C608.093 86.3537 608.249 86.571 608.36 86.7415H608.487V81.9091H609.996V95H608.539V93.4915H608.36C608.249 93.6705 608.091 93.8963 607.887 94.169C607.682 94.4375 607.39 94.6783 607.011 94.8913C606.632 95.1001 606.127 95.2045 605.496 95.2045ZM605.7 93.8494C606.306 93.8494 606.817 93.6918 607.235 93.3764C607.652 93.0568 607.97 92.6158 608.187 92.0533C608.404 91.4865 608.513 90.8324 608.513 90.0909C608.513 89.358 608.406 88.7166 608.193 88.1669C607.98 87.6129 607.665 87.1825 607.247 86.8757C606.83 86.5646 606.314 86.4091 605.7 86.4091C605.061 86.4091 604.529 86.5732 604.102 86.9013C603.681 87.2251 603.363 87.6662 603.15 88.2244C602.941 88.7784 602.837 89.4006 602.837 90.0909C602.837 90.7898 602.943 91.4247 603.156 91.9957C603.374 92.5625 603.693 93.0142 604.115 93.3509C604.541 93.6832 605.07 93.8494 605.7 93.8494ZM613.4 98.6818C613.144 98.6818 612.916 98.6605 612.716 98.6179C612.516 98.5795 612.377 98.5412 612.3 98.5028L612.684 97.1733C613.05 97.267 613.374 97.3011 613.656 97.2756C613.937 97.25 614.186 97.1243 614.403 96.8984C614.625 96.6768 614.827 96.3168 615.011 95.8182L615.292 95.0511L611.661 85.1818H613.298L616.008 93.0057H616.11L618.82 85.1818H620.457L616.289 96.4318C616.102 96.9389 615.869 97.3587 615.592 97.6911C615.315 98.0277 614.994 98.277 614.627 98.4389C614.265 98.6009 613.856 98.6818 613.4 98.6818ZM630.7 85.1818V86.4602H625.612V85.1818H630.7ZM627.095 82.8295H628.604V92.1875C628.604 92.6136 628.665 92.9332 628.789 93.1463C628.917 93.3551 629.079 93.4957 629.275 93.5682C629.475 93.6364 629.686 93.6705 629.908 93.6705C630.074 93.6705 630.21 93.6619 630.317 93.6449C630.423 93.6236 630.508 93.6065 630.572 93.5938L630.879 94.9489C630.777 94.9872 630.634 95.0256 630.451 95.0639C630.268 95.1065 630.035 95.1278 629.754 95.1278C629.328 95.1278 628.91 95.0362 628.501 94.853C628.096 94.6697 627.76 94.3906 627.491 94.0156C627.227 93.6406 627.095 93.1676 627.095 92.5966V82.8295ZM636.44 95.2045C635.494 95.2045 634.678 94.9957 633.992 94.5781C633.31 94.1562 632.784 93.5682 632.413 92.8139C632.047 92.0554 631.864 91.1733 631.864 90.1676C631.864 89.1619 632.047 88.2756 632.413 87.5085C632.784 86.7372 633.3 86.1364 633.96 85.706C634.625 85.2713 635.401 85.054 636.287 85.054C636.798 85.054 637.303 85.1392 637.802 85.3097C638.3 85.4801 638.754 85.7571 639.163 86.1406C639.572 86.5199 639.898 87.0227 640.141 87.6491C640.384 88.2756 640.506 89.0469 640.506 89.9631V90.6023H632.937V89.2983H638.972C638.972 88.7443 638.861 88.25 638.639 87.8153C638.422 87.3807 638.111 87.0376 637.706 86.7862C637.305 86.5348 636.832 86.4091 636.287 86.4091C635.686 86.4091 635.166 86.5582 634.727 86.8565C634.293 87.1506 633.958 87.5341 633.724 88.0071C633.489 88.4801 633.372 88.9872 633.372 89.5284V90.3977C633.372 91.1392 633.5 91.7678 633.756 92.2834C634.016 92.7947 634.376 93.1847 634.836 93.4531C635.296 93.7173 635.831 93.8494 636.44 93.8494C636.837 93.8494 637.195 93.794 637.514 93.6832C637.838 93.5682 638.117 93.3977 638.352 93.1719C638.586 92.9418 638.767 92.6562 638.895 92.3153L640.352 92.7244C640.199 93.2188 639.941 93.6534 639.579 94.0284C639.217 94.3991 638.769 94.6889 638.237 94.8977C637.704 95.1023 637.105 95.2045 636.44 95.2045ZM646.249 95.2045C645.329 95.2045 644.536 94.9872 643.871 94.5526C643.206 94.1179 642.695 93.5192 642.337 92.7564C641.979 91.9936 641.8 91.1222 641.8 90.142C641.8 89.1449 641.983 88.2649 642.35 87.5021C642.721 86.7351 643.236 86.1364 643.897 85.706C644.562 85.2713 645.337 85.054 646.224 85.054C646.914 85.054 647.536 85.1818 648.09 85.4375C648.644 85.6932 649.098 86.0511 649.451 86.5114C649.805 86.9716 650.025 87.5085 650.11 88.1222H648.601C648.486 87.6747 648.231 87.2784 647.834 86.9332C647.442 86.5838 646.914 86.4091 646.249 86.4091C645.661 86.4091 645.145 86.5625 644.702 86.8693C644.263 87.1719 643.92 87.6001 643.673 88.1541C643.43 88.7038 643.309 89.3494 643.309 90.0909C643.309 90.8494 643.428 91.5099 643.667 92.0724C643.91 92.6349 644.25 93.0717 644.689 93.3828C645.133 93.6939 645.652 93.8494 646.249 93.8494C646.641 93.8494 646.997 93.7812 647.317 93.6449C647.636 93.5085 647.907 93.3125 648.128 93.0568C648.35 92.8011 648.508 92.4943 648.601 92.1364H650.11C650.025 92.7159 649.814 93.2379 649.477 93.7024C649.145 94.1626 648.704 94.5291 648.154 94.8018C647.608 95.0703 646.974 95.2045 646.249 95.2045ZM653.284 89.0938V95H651.775V81.9091H653.284V86.7159H653.411C653.642 86.2088 653.987 85.8061 654.447 85.5078C654.911 85.2053 655.529 85.054 656.301 85.054C656.97 85.054 657.556 85.1882 658.058 85.4567C658.561 85.7209 658.951 86.1278 659.228 86.6776C659.509 87.223 659.65 87.9176 659.65 88.7614V95H658.142V88.8636C658.142 88.0838 657.939 87.4808 657.534 87.0547C657.134 86.6243 656.578 86.4091 655.866 86.4091C655.372 86.4091 654.929 86.5135 654.536 86.7223C654.149 86.9311 653.842 87.2358 653.616 87.6364C653.394 88.0369 653.284 88.5227 653.284 89.0938ZM666.392 95V85.1818H667.85V86.7159H667.978C668.182 86.1918 668.512 85.7848 668.968 85.495C669.424 85.201 669.972 85.054 670.611 85.054C671.259 85.054 671.798 85.201 672.228 85.495C672.663 85.7848 673.002 86.1918 673.245 86.7159H673.347C673.598 86.2088 673.975 85.8061 674.478 85.5078C674.981 85.2053 675.584 85.054 676.287 85.054C677.165 85.054 677.883 85.3288 678.441 85.8786C679 86.424 679.279 87.2741 679.279 88.429V95H677.77V88.429C677.77 87.7045 677.572 87.1868 677.176 86.8757C676.779 86.5646 676.313 86.4091 675.776 86.4091C675.086 86.4091 674.551 86.6179 674.172 87.0355C673.792 87.4489 673.603 87.973 673.603 88.608V95H672.069V88.2756C672.069 87.7173 671.887 87.2678 671.525 86.9268C671.163 86.5817 670.696 86.4091 670.125 86.4091C669.733 86.4091 669.367 86.5135 669.026 86.7223C668.689 86.9311 668.417 87.2209 668.208 87.5916C668.003 87.9581 667.901 88.3821 667.901 88.8636V95H666.392ZM684.386 95.2301C683.764 95.2301 683.199 95.1129 682.692 94.8786C682.185 94.6399 681.782 94.2969 681.484 93.8494C681.186 93.3977 681.037 92.8523 681.037 92.2131C681.037 91.6506 681.147 91.1946 681.369 90.8452C681.591 90.4915 681.887 90.2145 682.258 90.0142C682.628 89.8139 683.037 89.6648 683.485 89.5668C683.937 89.4645 684.39 89.3835 684.846 89.3239C685.443 89.2472 685.927 89.1896 686.297 89.1513C686.672 89.1087 686.945 89.0384 687.116 88.9403C687.29 88.8423 687.378 88.6719 687.378 88.429V88.3778C687.378 87.7472 687.205 87.2571 686.86 86.9077C686.519 86.5582 686.001 86.3835 685.307 86.3835C684.586 86.3835 684.022 86.5412 683.613 86.8565C683.204 87.1719 682.916 87.5085 682.75 87.8665L681.318 87.3551C681.574 86.7585 681.915 86.294 682.341 85.9616C682.771 85.625 683.24 85.3906 683.747 85.2585C684.258 85.1222 684.761 85.054 685.255 85.054C685.571 85.054 685.933 85.0923 686.342 85.169C686.755 85.2415 687.154 85.3928 687.537 85.6229C687.925 85.853 688.247 86.2003 688.503 86.6648C688.758 87.1293 688.886 87.7514 688.886 88.5312V95H687.378V93.6705H687.301C687.199 93.8835 687.028 94.1115 686.79 94.3544C686.551 94.5973 686.233 94.804 685.837 94.9744C685.441 95.1449 684.957 95.2301 684.386 95.2301ZM684.616 93.875C685.213 93.875 685.716 93.7578 686.125 93.5234C686.538 93.2891 686.849 92.9865 687.058 92.6158C687.271 92.245 687.378 91.8551 687.378 91.446V90.0653C687.314 90.142 687.173 90.2124 686.956 90.2763C686.743 90.3359 686.495 90.3892 686.214 90.4361C685.937 90.4787 685.667 90.517 685.402 90.5511C685.142 90.581 684.932 90.6065 684.77 90.6278C684.378 90.679 684.011 90.7621 683.67 90.8771C683.334 90.9879 683.061 91.1562 682.852 91.3821C682.647 91.6037 682.545 91.9062 682.545 92.2898C682.545 92.8139 682.739 93.2102 683.127 93.4787C683.519 93.7429 684.015 93.875 684.616 93.875ZM692.506 91.4205L692.48 89.554H692.787L697.082 85.1818H698.949L694.372 89.8097H694.244L692.506 91.4205ZM691.099 95V81.9091H692.608V95H691.099ZM697.338 95L693.503 90.142L694.577 89.0938L699.256 95H697.338ZM704.063 95.2045C703.117 95.2045 702.301 94.9957 701.615 94.5781C700.933 94.1562 700.406 93.5682 700.036 92.8139C699.669 92.0554 699.486 91.1733 699.486 90.1676C699.486 89.1619 699.669 88.2756 700.036 87.5085C700.406 86.7372 700.922 86.1364 701.583 85.706C702.247 85.2713 703.023 85.054 703.909 85.054C704.421 85.054 704.926 85.1392 705.424 85.3097C705.923 85.4801 706.377 85.7571 706.786 86.1406C707.195 86.5199 707.521 87.0227 707.764 87.6491C708.007 88.2756 708.128 89.0469 708.128 89.9631V90.6023H700.56V89.2983H706.594C706.594 88.7443 706.483 88.25 706.262 87.8153C706.044 87.3807 705.733 87.0376 705.328 86.7862C704.928 86.5348 704.455 86.4091 703.909 86.4091C703.308 86.4091 702.789 86.5582 702.35 86.8565C701.915 87.1506 701.58 87.5341 701.346 88.0071C701.112 88.4801 700.995 88.9872 700.995 89.5284V90.3977C700.995 91.1392 701.122 91.7678 701.378 92.2834C701.638 92.7947 701.998 93.1847 702.458 93.4531C702.919 93.7173 703.453 93.8494 704.063 93.8494C704.459 93.8494 704.817 93.794 705.137 93.6832C705.46 93.5682 705.74 93.3977 705.974 93.1719C706.208 92.9418 706.389 92.6562 706.517 92.3153L707.975 92.7244C707.821 93.2188 707.563 93.6534 707.201 94.0284C706.839 94.3991 706.392 94.6889 705.859 94.8977C705.326 95.1023 704.727 95.2045 704.063 95.2045ZM709.883 95V85.1818H711.34V86.6648H711.442C711.621 86.179 711.945 85.7848 712.414 85.4822C712.883 85.1797 713.411 85.0284 713.999 85.0284C714.11 85.0284 714.249 85.0305 714.415 85.0348C714.581 85.0391 714.707 85.0455 714.792 85.054V86.5881C714.741 86.5753 714.624 86.5561 714.44 86.5305C714.261 86.5007 714.072 86.4858 713.871 86.4858C713.394 86.4858 712.968 86.5859 712.593 86.7862C712.222 86.9822 711.928 87.255 711.711 87.6044C711.498 87.9496 711.391 88.3437 711.391 88.7869V95H709.883ZM722.995 87.3807L721.639 87.7642C721.554 87.5384 721.428 87.3189 721.262 87.1058C721.1 86.8885 720.879 86.7095 720.598 86.5689C720.316 86.4283 719.956 86.358 719.517 86.358C718.916 86.358 718.416 86.4964 718.015 86.7734C717.619 87.0462 717.421 87.3935 717.421 87.8153C717.421 88.1903 717.557 88.4865 717.83 88.7038C718.102 88.9212 718.529 89.1023 719.108 89.2472L720.566 89.6051C721.443 89.8182 722.098 90.1442 722.528 90.5831C722.958 91.0178 723.174 91.5781 723.174 92.2642C723.174 92.8267 723.012 93.3295 722.688 93.7727C722.368 94.2159 721.921 94.5653 721.345 94.821C720.77 95.0767 720.101 95.2045 719.338 95.2045C718.337 95.2045 717.508 94.9872 716.852 94.5526C716.196 94.1179 715.78 93.483 715.605 92.6477L717.037 92.2898C717.174 92.8182 717.431 93.2145 717.811 93.4787C718.194 93.7429 718.695 93.875 719.313 93.875C720.016 93.875 720.574 93.7259 720.987 93.4276C721.405 93.125 721.614 92.7628 721.614 92.3409C721.614 92 721.495 91.7145 721.256 91.4844C721.017 91.25 720.651 91.0753 720.156 90.9602L718.52 90.5767C717.621 90.3636 716.96 90.0334 716.539 89.5859C716.121 89.1342 715.912 88.5696 715.912 87.892C715.912 87.3381 716.068 86.848 716.379 86.4219C716.694 85.9957 717.122 85.6612 717.664 85.4183C718.209 85.1754 718.827 85.054 719.517 85.054C720.489 85.054 721.252 85.267 721.806 85.6932C722.364 86.1193 722.76 86.6818 722.995 87.3807ZM726.004 95.1023C725.688 95.1023 725.418 94.9893 725.192 94.7635C724.966 94.5376 724.853 94.267 724.853 93.9517C724.853 93.6364 724.966 93.3658 725.192 93.1399C725.418 92.9141 725.688 92.8011 726.004 92.8011C726.319 92.8011 726.59 92.9141 726.816 93.1399C727.041 93.3658 727.154 93.6364 727.154 93.9517C727.154 94.1605 727.101 94.3523 726.995 94.527C726.892 94.7017 726.754 94.8423 726.579 94.9489C726.409 95.0511 726.217 95.1023 726.004 95.1023Z" fill="#717680"/>
</svg>
