<svg width="48" height="48" viewBox="0 0 48 48" fill="none" xmlns="http://www.w3.org/2000/svg">
<path d="M35.4286 47C37.9497 47 40 44.9369 40 42.4V5.6C40 3.0631 37.9497 1 35.4286 1H12.5714C10.0503 1 8 3.0631 8 5.6V42.4C8 44.9369 10.0503 47 12.5714 47H35.4286ZM24 35.5C24.6062 35.5 25.1876 35.7423 25.6162 36.1737C26.0449 36.605 26.2857 37.19 26.2857 37.8C26.2857 38.41 26.0449 38.995 25.6162 39.4263C25.1876 39.8577 24.6062 40.1 24 40.1C23.3938 40.1 22.8124 39.8577 22.3838 39.4263C21.9551 38.995 21.7143 38.41 21.7143 37.8C21.7143 37.19 21.9551 36.605 22.3838 36.1737C22.8124 35.7423 23.3938 35.5 24 35.5Z" fill="#421ABC"/>
</svg>
