<svg width="48" height="48" viewBox="0 0 48 48" fill="none" xmlns="http://www.w3.org/2000/svg">
<path fill-rule="evenodd" clip-rule="evenodd" d="M4 24.5C4 13.1776 12.9845 4 24.0672 4C34.2679 4 42.5338 12.0451 43.9203 21.743C44.5659 26.2566 41.2052 29.9922 36.8199 29.9931C36.0798 29.9931 35.338 29.9767 34.6318 29.9621L34.432 29.9576C33.7102 29.9385 32.9882 29.9315 32.2661 29.9366C30.8484 29.9548 29.9736 30.0824 29.551 30.2974C28.6629 30.7511 27.8488 32.188 28.5612 33.9637C29.0115 35.0844 29.3842 35.959 29.6901 36.6761L29.7231 36.7544C30.0289 37.4724 30.2822 38.0683 30.4614 38.5748C30.6451 39.0942 30.7779 39.5907 30.8136 40.1219C30.851 40.6622 30.7824 41.1578 30.6593 41.6699C30.3178 43.0985 29.2665 43.9449 28.0886 44.4041C26.9428 44.8506 25.5304 45 24.0672 45C12.9845 45 4 35.8224 4 24.5ZM27.6294 19.9444C28.8119 19.9444 29.9459 19.4645 30.782 18.6102C31.6181 17.7558 32.0878 16.5971 32.0878 15.3889C32.0878 14.1807 31.6181 13.022 30.782 12.1676C29.9459 11.3133 28.8119 10.8333 27.6294 10.8333C26.447 10.8333 25.313 11.3133 24.4769 12.1676C23.6408 13.022 23.171 14.1807 23.171 15.3889C23.171 16.5971 23.6408 17.7558 24.4769 18.6102C25.313 19.4645 26.447 19.9444 27.6294 19.9444ZM19.6043 22.2222C19.6043 23.3096 19.1816 24.3525 18.4291 25.1214C17.6766 25.8903 16.656 26.3222 15.5918 26.3222C14.5276 26.3222 13.507 25.8903 12.7545 25.1214C12.002 24.3525 11.5792 23.3096 11.5792 22.2222C11.5792 21.1348 12.002 20.092 12.7545 19.3231C13.507 18.5542 14.5276 18.1222 15.5918 18.1222C16.656 18.1222 17.6766 18.5542 18.4291 19.3231C19.1816 20.092 19.6043 21.1348 19.6043 22.2222ZM19.1585 37.2556C19.9862 37.2556 20.78 36.9196 21.3653 36.3216C21.9506 35.7235 22.2794 34.9124 22.2794 34.0667C22.2794 33.2209 21.9506 32.4098 21.3653 31.8118C20.78 31.2138 19.9862 30.8778 19.1585 30.8778C18.3308 30.8778 17.537 31.2138 16.9517 31.8118C16.3664 32.4098 16.0376 33.2209 16.0376 34.0667C16.0376 34.9124 16.3664 35.7235 16.9517 36.3216C17.537 36.9196 18.3308 37.2556 19.1585 37.2556Z" fill="#421ABC"/>
</svg>
