<svg width="48" height="48" viewBox="0 0 48 48" fill="none" xmlns="http://www.w3.org/2000/svg">
<path d="M9.89881 44.507C12.8064 44.7481 17.4214 45 24.0001 45C30.5787 45 35.1938 44.7481 38.1014 44.507C41.024 44.265 43.2791 41.9659 43.5164 38.9861C43.7529 36.0218 44 31.3165 44 24.6094C44 21.2472 43.9378 18.3889 43.8462 16H4.15395C4.04789 18.8685 3.99662 21.7388 4.00017 24.6094C4.00017 31.3165 4.24728 36.0218 4.48373 38.9861C4.72106 41.9659 6.97616 44.265 9.89881 44.507Z" fill="#421ABC"/>
<path fill-rule="evenodd" clip-rule="evenodd" d="M4 13C4.06611 11.8402 4.13493 10.831 4.20645 9.9724C4.44715 7.0132 6.73428 4.7299 9.69844 4.4896C12.6473 4.2502 17.3279 4 24 4C30.6721 4 35.3527 4.2502 38.3016 4.4896C41.2657 4.7299 43.5529 7.0132 43.7936 9.9724C43.8645 10.8304 43.9333 11.8396 44 13H4ZM9.12508 8.95C9.12508 8.59196 9.26755 8.24858 9.52115 7.99541C9.77475 7.74223 10.1187 7.6 10.4773 7.6H12.2804C12.639 7.6 12.983 7.74223 13.2366 7.99541C13.4902 8.24858 13.6326 8.59196 13.6326 8.95C13.6326 9.30804 13.4902 9.65142 13.2366 9.90459C12.983 10.1578 12.639 10.3 12.2804 10.3H10.4773C10.1187 10.3 9.77475 10.1578 9.52115 9.90459C9.26755 9.65142 9.12508 9.30804 9.12508 8.95ZM17.6894 7.6C17.3308 7.6 16.9868 7.74223 16.7332 7.99541C16.4796 8.24858 16.3372 8.59196 16.3372 8.95C16.3372 9.30804 16.4796 9.65142 16.7332 9.90459C16.9868 10.1578 17.3308 10.3 17.6894 10.3H19.4924C19.8511 10.3 20.195 10.1578 20.4486 9.90459C20.7022 9.65142 20.8447 9.30804 20.8447 8.95C20.8447 8.59196 20.7022 8.24858 20.4486 7.99541C20.195 7.74223 19.8511 7.6 19.4924 7.6H17.6894Z" fill="#421ABC"/>
</svg>
